<svg width="256" height="209" viewBox="0 0 256 209" fill="none" xmlns="http://www.w3.org/2000/svg">
<path d="M0 25.45C9.42 29.627 19.542 32.45 30.166 33.72C19.321 27.22 10.994 16.927 7.073 4.66302C17.3825 10.7809 28.6619 15.0913 40.424 17.408C50.005 7.20102 63.654 0.822021 78.761 0.822021C107.767 0.822021 131.284 24.338 131.284 53.342C131.284 57.459 130.819 61.467 129.924 65.312C173.574 63.121 212.274 42.212 238.179 10.436C242.699 18.193 245.289 27.216 245.289 36.84C245.289 55.062 236.016 71.137 221.924 80.556C230.265 80.2948 238.422 78.0421 245.714 73.986C245.717 74.206 245.717 74.426 245.717 74.647C245.717 100.094 227.613 121.322 203.587 126.147C211.321 128.25 219.434 128.558 227.305 127.047C220.622 147.913 201.225 163.097 178.243 163.522C196.218 177.608 218.865 186.005 243.471 186.005C247.711 186.005 251.891 185.756 256 185.271C232.757 200.173 205.15 208.868 175.49 208.868C78.883 208.868 26.056 128.837 26.056 59.433C26.056 57.155 26.106 54.89 26.208 52.638C15.9257 45.2049 7.05084 35.9982 0 25.45" fill="#55ACEE"/>
</svg>
